@startuml

package "Hardware Stack" #ccffff {
    interface CLI
    interface Web
    interface REST
    folder nodejs #ffffff {
        component sailsjs
        component sails.io
    }
    folder bin #ffffff {
      component hardware
    }
}
CLI -- hardware
hardware -- REST
Web -- sailsjs
Web -- REST
REST -- sailsjs

@enduml
